<svg xmlns="http://www.w3.org/2000/svg" width="360" height="360"><path fill="#FFF" d="M263.823 162.642c3.952-10.692 9.363-25.336 32.671-61.789 20.278-31.717 13.904-52.165 13.624-53.02l-.745-2.262-2.33.49c-.321.067-6.604 1.504-9.154 10.471l-1.944.255c-.338.044-8.303 1.226-9.57 13.176-.042.401-.092.801-.147 1.201a12.092 12.092 0 00-.43-.841l-1.747-3.076-2.471 2.531c-4.281 4.386-4.288 7.777-4.294 11.057-.008 3.868-.017 8.252-7.616 17.578a270.942 270.942 0 01-3.922 4.674c-5.837 6.848-10.878 12.761-16.156 25.942-5.578 13.926-6.805 14.977-18.545 25.027a811.724 811.724 0 00-8.305 7.183c-18.601 16.344-27.64 28.556-31.477 34.603-11.048-18.808-20.55-30.146-27.613-38.573-7.575-9.039-12.579-15.01-14.893-24.102-1.834-7.205-2.556-12.464-3.136-16.691-1.141-8.309-1.895-13.799-9.346-23.576-14.981-19.653-7.939-33.003-7.641-33.545l5.023-8.843-8.71 5.25c-7.208 4.343-11.083 12.06-11.21 22.315l-.003.51C97.723 48.652 96.403 18.689 96.39 18.353l-.191-5.06-4.059 3.025c-8.1 6.037-11.806 15.508-10.891 27.626-.432-2.229-.593-3.438-.599-3.484l-.78-6.116-3.915 4.76c-6.651 8.086-8.334 20.095-4.869 34.728 2.057 8.691 5.305 15.812 6.57 18.403a38.6 38.6 0 00-1.428 6.229c-8.163-16.36-12.503-29.681-12.554-29.838l-1.714-5.308-3.048 4.672c-8.311 12.745.118 34.597 7.37 48.841-3.638-3.802-7.488-8.542-10.517-13.993l-2.388-4.3-2.292 4.354c-.369.702-8.679 17.563 24.045 48.988 2.817 2.705 4.635 5.199 5.795 7.184-3.074-1.38-7.199-4.06-11.057-9.234l-3.904-5.239-.866 6.477c-.07.524-1.282 11.071 11.592 22.816a21.07 21.07 0 01-2.306-1.302l-5.361-3.478 1.307 6.254c.076.362 1.672 7.38 12.283 14.203-2.184 1.145-2.987 2.964-3.28 4.232-.651 2.818.43 5.325 2.136 7.352-2.81 1.374-3.167 4.067-3.198 5.083-.059 2.047 1.027 3.604 2.64 4.73-.848 1.074-1.379 2.461-1.339 4.206.071 3.131 2.295 4.993 4.917 6.028-.631 1.199-.921 2.65-.563 4.357.528 2.508 2.302 4.287 4.828 4.98-.425 1.746-.116 3.556.893 5.237 1.033 1.721 2.557 2.87 4.401 3.351-.217 1.43.086 2.882.891 4.237 1.093 1.841 2.895 2.915 5.109 3.062.175 1.323.839 3.087 2.793 4.853 1.391 1.257 3.041 1.959 4.789 2.041.182 1.184.737 2.388 1.898 3.447 1.072.979 2.42 1.495 3.899 1.495.189 0 .377-.008.561-.023.341.954.976 1.909 2.007 2.789 1.142.973 2.472 1.487 3.846 1.487.212 0 .42-.013.623-.035.428.966 1.152 1.824 2.244 2.441a4.894 4.894 0 002.44.649 5.24 5.24 0 001.599-.255c.597.777 1.519 1.569 2.946 2.182a6.07 6.07 0 002.406.506c1.197 0 2.22-.361 3.042-.828 1.035.787 2.447 1.524 4.22 1.688-2.569 2.613-6.076 5.286-10.038 8.306-10.667 8.129-25.275 19.262-35.128 40.014-2.727 5.745-3.092 10.387-1.086 13.795 1.33 2.257 3.488 3.499 5.352 4.108.54 3.699 3.084 8.729 10.343 10.767a19.96 19.96 0 005.384.761c6.789 0 11.453-3.678 13.441-5.617.455.04.903.06 1.343.06 6.17 0 9.882-3.893 11.64-7.153a19.46 19.46 0 003.783.398c7.577 0 12.431-5.147 14.427-15.299.629-3.198 1.327-5.763 2-7.791.836 2.344 3.715 7.478 10.802 10.879-.563-1.253-.902-3.484-1.009-4.903 1.009 1.324 2.754 4.494 12.973 10.389.238.138.519-.116.387-.358a270.508 270.508 0 01-4.194-8.035c-1.264-2.488-.832-4.792-.16-6.394 2.567 1.873 5.086 2.819 7.515 2.819 6.134 0 9.316-5.783 10.311-8.001a17.28 17.28 0 015.331-2.396c-.185 3.352.56 6.086 2.225 8.156 1.695 2.107 4.329 3.414 7.529 3.766a9.347 9.347 0 00-.49 2.197c-.636 6.431 5.699 10.779 5.969 10.961 1.544 1.056 3.524 2.34 6.075 3.627.453.229.944-.238.725-.695-1.09-2.271-2.297-5.008-2.9-6.262-.68-1.459-.595-2.628-.354-3.416.427.045.845.067 1.253.067 3.208 0 5.35-1.344 7.07-2.423 1.483-.931 2.384-1.458 3.644-1.458 1.262 0 2.899.563 4.863 1.673 4.978 2.812 7.956 6.406 9.321 8.36-1.205 1.844-2.063 4.505-.793 7.313.478 1.055.428 1.51.45 1.518-.153.136-.781.328-1.458.328-.898 0-2.815-.007-4.772-.048a.578.578 0 00-.448.958c1.311 1.505 2.638 2.934 3.117 3.515.282.318 2.887 3.112 7.255 3.112 2.784 0 5.567-1.14 8.274-3.389a13.886 13.886 0 002.217-2.304l3.214.164c.226.011.448.017.669.017 6.938 0 12.169-5.703 12.169-13.265 0-6.536-7.05-9.963-12.195-12.464-1.016-.494-1.974-.963-2.76-1.396v-10.141h-5.417l2.144-3.326c3.456-5.362 3.951-11.166 1.357-15.922-2.297-4.214-6.603-6.729-11.514-6.729-1.689 0-3.391.299-5.072.892-2.272-1.351-4.618-2.034-6.991-2.034-4.101 0-7.513 2-10.256 3.607-.694.407-1.399.821-2.057 1.159-.394-1.951-1.006-3.476-1.571-4.571 3.264-3.881 4.171-8.331 4.984-12.315 1.081-5.302 1.827-8.136 5.732-9.565.662-.242 1.281-.365 1.843-.365 3.808 0 6.326 6.159 8.388 11.932 2.587 7.242 5.843 8.324 7.554 8.324l.32-.006.436-.074.205-.07c1.273-.438 2.299-1.182 3.048-2.176l3.111-.521c6.925-1.156 11.721-4.026 14.256-8.528 2.86-5.082 1.894-10.731 1.16-13.42 1.908-2.701 3.042-7.324.162-15.071-4.401-11.836-17.03-26.725-25.495-27.228a8.791 8.791 0 00-.504-.015c-1.495 0-2.637.409-3.489.99a27.702 27.702 0 00-3.374-1.603c-1.547-.759-3.359-1.359-4.999-1.811 3.803-4.127 10.288-11.589 16.295-20.53 6.159-9.168 8.26-14.855 10.92-22.055z"/><path fill="#54575A" d="M250.693 183.212c15.216-22.648 4.897-23.328 43.559-83.792 19.831-31.017 13.338-50.754 13.338-50.754s-7.511 1.578-8.07 14.775c-.375 8.857-4.364 15.106-4.364 15.106 3.071-10.983 1.136-19.121 1.136-19.121s-6.21.815-7.271 10.818c-.719 6.785-3.235 13.39-3.235 13.39.901-6.357-2.301-11.996-2.301-11.996-8.197 8.398 2.632 10.806-11.752 28.458-7.556 9.271-13.42 14.315-19.672 29.925-6.967 17.398-7.966 15.999-27.563 33.219-26.395 23.193-33.229 37.936-33.229 37.936-23.794-41.989-40.152-47.958-45.089-67.35-5.395-21.195-1.262-25.197-12.021-39.311-16.363-21.468-7.837-36.473-7.837-36.473-15.596 9.398-8.149 33.089-8.149 33.089-23.027-34.19-24.442-72.68-24.442-72.68-21.195 15.797-1.98 51.589-1.98 51.589-1.199 8.598.986 17.611.986 17.611-12.398-28.393-14.726-46.856-14.726-46.856-14.924 18.146 2.523 51.239 2.523 51.239-3.199 8.998-1.72 17.037-1.72 17.037-11.597-20.795-17.672-39.627-17.672-39.627-11.997 18.396 15.262 59.708 15.262 59.708s-14.465-9.726-22.964-25.022c0 0-8.122 15.431 23.534 45.829 7.559 7.258 8.534 13.197 8.534 13.197s-9.574-.74-17.771-11.738c0 0-1.818 13.603 19.377 27 0 0-6.78 1.194-14.178-3.605 0 0 2.006 9.594 19.802 16.992 0 0-9.61-2.612-10.811 2.586-1.199 5.198 6.794 8.929 6.794 8.929s-7.646-1.837-7.787 2.986c-.1 3.398 6.716 4.242 6.716 4.242s-5.517.189-5.417 4.556c.1 4.365 8.095 4.549 8.095 4.549s-4.595 1.549-3.796 5.349c.8 3.799 5.644 3.482 7.544 2.684 0 0-4.544 2.715-2.146 6.713 2.4 4 7.399 1.601 7.399 1.601s-4.195 2.47-2.1 5.998c1.9 3.2 6.399 1.101 6.399 1.101s-2.744 2.817.999 6.197c3.1 2.8 6.421.424 6.421.424s-2.021 2.976.278 5.075c2.299 2.1 5.775-.603 5.775-.603s-2.076 2.503.624 4.803c2.699 2.299 5.268-.786 5.268-.786s-1.271 3.09 1.027 4.389c2.3 1.301 4.596-1.979 4.596-1.979s-1.559 2.845 2.129 4.427c2.676 1.147 4.564-1.48 4.564-1.48s4.214 6.376 10.815-.601c-3.538 14.05-33.084 20.727-49.522 55.353-6.597 13.896 4.436 14.595 4.436 14.595s-.808 7.764 8.488 10.371c10.658 2.988 17.097-5.106 17.097-5.106 9.799 1.697 12.436-7.406 12.436-7.406 8.498 2.5 14.758-.093 17.158-12.289 2.393-12.17 5.783-15.779 5.798-15.796-.3 9.396 5.699 13.496 5.699 13.496-1.4-7.198 2.671-12.989 2.671-12.989-2.899 10.298 7.026 17.188 7.026 17.188-3.2-6.298 1.565-11.611 1.565-11.611 11.42 10.852 16.309-2.899 16.309-2.899 5.299-3.898 10.617-3.788 10.617-3.788-3.198 14.597 10.268 12.356 10.268 12.356-4.099-2.6-3.354-6.853-3.354-6.853 7.398.2 6.485-5.301 6.485-5.301 5.598 3 8.277 5.91 8.277 5.91-23.194 9.696-8.078 19.884-8.078 19.884-2.099-4.499.687-7.482.687-7.482 9.111 2.284 8.711-7.613 19.509-1.515 8.04 4.54 11.281 10.887 11.281 10.887s-3.084 2.81-1.637 6.006c2.654 5.866-3.546 5.602-3.546 5.602s4.739 5.343 11.838-.557c7.098-5.898 1.913-14.532 1.913-14.532 2 0 3.749 1.071 3.749 1.071s-.404 3.72 2.115 5.176c4.019 2.317-.51 5.533-.51 5.533 5.899.301 10.041-4.392 10.041-10.59 0-6.199-9.712-9.229-14.109-11.829-4.399-2.599-4.239-3.266-11.169-5.877-14.027-5.285-20.165-15.085-20.165-15.085 4.3-2.699 7.825-2.939 7.825-2.939s.273 3.24 3.669 5.146c5.296 2.973.703 6.192.703 6.192 4.154-.458 5.267-3.306 5.267-3.306 6.099.9 2.41 5.89 2.41 5.89 9.313-2.851 4.283-12.584 4.283-12.584 3.8-1.499 3.481 5.623 3.481 5.623 7.359-11.42-2.419-22.246-13.284-17.335-9.554-6.798-16.166 3.282-21.275 3.172-.23-5.534-2.657-8.328-2.657-8.328 8.498-7.898 2.98-20.32 13.152-24.045 7.661-2.807 11.152 6.172 13.651 13.17 2.5 6.998 5.145 6.552 5.145 6.552 3.2-1.099 2.75-4.987 2.602-6.002-.978-6.696-.278-11.898-.278-11.898h.804c.399 6.898 6.693 7.498 6.693 7.498-.544 3.871-2.096 6.29-3.235 7.599 19.524-3.262 12.875-19.916 12.875-19.916 9.163-8.906-12.336-38.446-22.512-39.05-2.916-.174-3.319 1.858-3.319 1.858-1.814-1.51-4.961-2.703-4.961-2.703-3.599-1.799-9.104-2.678-9.104-2.678s10.261-10.196 19.261-23.592z"/><g fill="#FFF"><path d="M250.979 259.47s-.135-2.533.465-7.135c0 0-1.458-.717-2.724-2.718 0 0 .251 5.569 2.259 9.853zM267.957 252.751c.096-2.852-2.084-4.564-3.291-5.291-1.042.16-2.126.487-3.285.705l.001.004c3.923 1.796 6.575 4.582 6.575 4.582z"/><path d="M270.148 254.342c-.249.249-.626.428-1.027.556 2.805-4.423-.732-6.798-.732-6.798l-.45-.189c-1.068-.599-2.146-.623-3.273-.45 1.208.727 3.388 2.439 3.292 5.291 0 0-2.652-2.786-6.575-4.582l-.001-.004c-1.319.249-2.734.353-4.297-.123-1.234-.375-8.724-2.685-11.247-10.259-2.866 4.304-3.053 9.367-3.053 9.367-6.365-1.513-10.688.771-13.48 3.602 1.611-1.105 3.656-1.799 6.313-1.89 10.927-.376 11.03 15.341 15.893 20.655.833-3.991-2.535-11.576-2.535-11.576-3.601-8.7-2.495-15.29-2.495-15.29 3.4 8.503 10.164 10.445 10.164 10.445-.1 5.902 6.199 7.089 6.199 7.089.802 2.801-.42 5.835-.42 5.835 3.787-.865 9.325-3.791 7.724-11.679zm-6.524 10.705c.596-1.256 1.218-3.178 1.164-5.728 0 0-4.24-.537-4.601-4.602 0 0 1.823 2.853 5.981 3.249.001.001.712 4.661-2.544 7.081z"/><path d="M258.999 242.15a1.89 1.89 0 01-1.799 1.319 1.9 1.9 0 01-1.899-1.9c0-.092.015-.181.027-.269a1.543 1.543 0 01.925-2.777c.751 0 1.376.535 1.517 1.244.047.015.097.023.143.042a10.644 10.644 0 01-.488-2.34 3.779 3.779 0 00-.514-.039 3.805 3.805 0 100 7.611c1.26 0 2.373-.615 3.065-1.557-.358-.42-.685-.863-.977-1.334z"/><path d="M256.253 238.523a1.543 1.543 0 00-.925 2.777c.259.194.576.314.925.314a1.547 1.547 0 001.517-1.848 1.548 1.548 0 00-1.517-1.243zM267.65 322.601c-7.56-3.554-9.33-5.969-15.132-9.069-3.943-2.109-10.602-3.101-15.803-7.152-4.077-3.175-6.739-5.906-8.454-7.992-1.234.237-2.079.717-2.657 1.299-.786.79-1.077 1.77-1.162 2.589 6.131 4.09 7.435 7.428 7.435 7.428-10.103 3.3-12.663 7.606-12.663 7.606 2.931 3.044 6.001.523 6.001.523 4.202-3.013 8.301-3.708 8.301-3.708 15.204 2.801 20.458 16.309 20.458 16.309s-2.454 3.202-1.739 4.671c.618 1.27.852 2.324.901 3.161.09 1.517-.436 2.31-.436 2.31s6.192-1.838 6.192-6.888c0-5.271-3.331-10.493-6.219-14.03-2.207-2.704-4.155-4.425-4.155-4.425 7.777 3.85 10.002 8.31 10.002 8.31 3.457-.009 7.784 2.363 7.784 2.363s-1.834 2.181.967 4.183c1.118.797 1.745 1.585 2.101 2.246.536.996.452 1.702.452 1.702 2.408-2.011 2.974-3.991 2.974-6.1 0-2.112-1.675-3.703-5.148-5.336zM247 283.372a8.288 8.288 0 011.938 2.35c.619 1.122 1.047 2.52 1.047 4.271 0 .54-.045 1.034-.122 1.493 2.438-1.763 4.441-1.711 5.638-1.404.77.198 1.209.501 1.209.501-.395-7.812-5.943-8.003-9.71-7.211zM249.752 292.033a6.058 6.058 0 01-.763 1.823c-.958 1.514-2.466 2.275-3.871 2.649.079.142.104.223.104.223 2.81-.378 4.618.527 5.694 1.439.917.777 1.304 1.56 1.304 1.56 1.536-2.914-1.541-6.664-2.468-7.694z"/><path d="M243.545 284.471c-7.727-5.478-13.141.113-18.406 2.447-.956.424-1.908.741-2.867.864-7.438 2.493-13.307 3.007-16.767 3.024-.679.027-1.38.042-2.112.042-.645 2.879-2.023 6.26-4.729 9.859 1.695-.604 4.955-1.635 7.307-1.583 0 0 .69-5.195 10.993-6.795 0 0-5.029 1.943-7.342 6.871-3.306 7.706.328 11.186.328 11.186-.997-2.934.364-5.824.364-5.824 8.803 2.9 5.797-6.734 5.797-6.734 5.901-5.602 9.269-3.849 9.269-3.849 7.702-5.9 14.704-5.188 14.704-5.188s-1.883 3.309 1.417 4.909c.463.225.863.444 1.22.659.46-.021 1-.08 1.552-.215 1.632-.401 3.356-1.472 3.356-4.215 0-2.594-4.084-5.458-4.084-5.458z"/></g><path fill="#FFF" d="M305.477 53.695s-2.346 2.546-2.924 10.141c-.453 5.949-2.104 11.154-4.127 15.481-6.166 14.301-18.98 26.656-28.581 42.41a1391.938 1391.938 0 00-5.197 9.696 91.827 91.827 0 00-.842 1.883c-12.643 29.406-23.298 52.278-44.803 72.492 1.297-.041 2.563-.078 3.785-.102 1.97-.038 3.819-.039 5.467.056 26.729-26.736 29.481-45.548 33.533-55.091.572-1.348 1.19-2.764 1.869-4.264 4.512-9.971 11.786-23.75 27.319-47.399 17.872-27.204 14.501-45.303 14.501-45.303z"/><path fill="#FFF" d="M248.526 213.803c-1.501.525-1.754 2.551-1.754 2.551-15.057-10.646-33.86-5.444-41.063-6.608-14.398-2.324-15.83-4.936-21.554-14.765-11.134-19.127-26.456-34.283-36.807-50.162-4.307-6.607-7.475-22.729-8.476-31.931-1-9.203-3.682-10.903-11.134-22.478-7.454-11.574-6.688-21.685-6.688-21.685-5.702 16.904 3.74 32.36 3.74 32.36-17.104-14.803-22.044-32.336-22.044-32.336s-9.129 9.498-7.929 29.369c0 0-3.487-5.216-5.354-10.417 0 0-8.154 16.427-4.78 33.354 0 0-3.778-2.259-7.736-9.335 0 0 .534 13.87 7.736 24.805 0 0-4.268-1.733-7.069-3.733 0 0 1.111 22.556 32.985 41.36 0 0-15.552 43.568 12.854 67.039 0 0 .866 8.002 9.06 9.06 0 0 1.857 6.916 9.059 4.383 0 0 1.624 3.042 7.94 1.91 4.323 15.21-23.703 28.688-35.172 41.035-5.214 5.613-9.527 11.591-12.559 17.04v9.77c4.142-8.116 11.921-19.271 25.312-25.693 0 0-4.935-.4-12.536 4.669 0 0 17.871-17.871 37.075-25.74 0 0-.133-12.402 8.669-18.136 0 0-12.101 20.314 4.952 35.43-1.5 7.301.128 12.047.128 12.047 2.2-6.702 7.459-9.374 7.459-9.374-1.4 6.002 1.462 11.689 1.462 11.689 1.7-3.601 4.5-4.766 4.5-4.766 10.302 12.402 14.709-1.014 14.709-1.014l.007-.006-.008.004.011-.005a22.62 22.62 0 011.148-.764c.778-.611 1.83-1.621 2.772-3.141 2.038-3.286 3.559-8.958.668-18.165 0 0-.071 5.596-2.9 10.803 0 0 2.074-5.95-3.526-20.354 0 0-1.774 3.45-.675 7.551 0 0-7.894-13.126 1.31-24.929 0 0-3.51 9.126 4.192 16.795 0 0 7.654 2.448 13.911-7.158 0 0-.015 4.71-2.063 8.383 0 0 8-3.644 10.053-14.834 0 0-2.266.318-3.656 1.628 0 0 1.685-6.122 10.394-8.948 0 0-3.638 3.975-5.419 13.088-1.782 9.113-8.396 14.76-16.498 18.362 0 0 .215.574.399 1.6 6.364-1.886 10.396-4.74 10.396-4.74 3.201 6.003 2.355 8.422 2.355 8.422 1.379-.332 2.424-.595 3.191-.795.042-7.429-3.806-10.072-3.806-10.072 8.389-3.592 5.391-19.86 13.535-25.465 0 0 .044-.035.004-.008 2.792-2.83 7.115-5.114 13.48-3.602 0 0 .187-5.063 3.053-9.367l.005.016a15.762 15.762 0 01-.656-2.784s1.199 2.489 4.799 4.423c0 0 .834-4.154 5.261-5.552 0 0-1.727-2.517-5.261-4.384 0 0 6.87-.822 9.537 5.979 2.645 6.747 2.791 8.992 9.423 12.172a6.04 6.04 0 00.447-.465c.586-.68 1.277-1.766 1.636-3.37 2.363-10.586-18.101-31.553-22.504-30.016zm-104.079 15.194s-8.363-.047-9.56-8.81c0 0-7.484-4.394-6.272-13.763 0 0 2.082 1.227 4.715.771 0 0-3.557-1.647-5.554-8.808 0 0 1.496.136 3.387-.28 0 0-6.875-3.474-5.512-10.028 0 0-4.601-2.634-3.283-8.016 0 0-5.459-2.802-3.901-9.686 0 0-5.995-2.88-3.905-9.791 0 0-2.934-1.231-3.877-5.116 0 0-6.037-1.603-5.527-8.22 0 0-7.235-3.876-4.396-12.74 0 0-7.84-7.948-.01-18.981 0 0-3.042-10.89 7.172-12.798 0 0 1.012-3.804-.643-8.965 2.519 3.251 5.523 7.96 6.386 15.308.928 7.896 2.294 12.638 5.931 19.255 0 0-9.685-6.411-12.063-21.597 0 0-10.453 7.995 9.321 28.664 0 0-10.455-3.722-14.426-14.787 0 0-7.718 12.579 15.659 20.624 0 0-5.101 1.949-14.346-4.166 0 0 .297 11.011 16.492 9.646 0 0-1.857 3.366-11.414 1.52 0 0 1.411 6.73 14.737 5.406 0 0-1.42 3.369-7.725 2.736 0 0 .66 4.538 12.578 4.774 0 0-5.423 4.106-10.538 1.818 0 0 .717 7.724 17.643 6.107 0 0-5.676 5.396-12.898 3.428 0 0 3.074 10.153 19.97 5.882 0 0-3.896 4.878-16.249 4.451 0 0 2.127 8.289 21.931 2.698 0 0-7.39 7.184-18.319 5.514 0 0 4.039 10.317 24.932 3.181 0 0-4.442 6.607-20.809 6.707 0 0 5.869 10.753 25.784 1.117 0 0-8.458 9.152-23.551 9.185 0 0 2.327 14.232 30.116-1.444 0 0-7.194 11.001-24.146 12.087 0 0 10.923 11.876 30.73-6.048 0 0-2.401 11.18-20.873 13.726 0 0 13.771 9.402 28.714-8.201-4.578 18.809-26.495 17.93-36.401 7.64zm124.942 18.187c-.001.001 0 .001.001.002-.001-.001-.002-.001-.001-.002z"/></svg>